<?xml version="1.0" encoding="UTF-8"?>
<!DOCTYPE svg PUBLIC "-//W3C//DTD SVG 1.1//EN" "http://www.w3.org/Graphics/SVG/1.1/DTD/svg11.dtd">
<!-- Creator: CorelDRAW 2017 -->
<svg xmlns="http://www.w3.org/2000/svg" xml:space="preserve" width="74.6994mm" height="18.5786mm" version="1.1" style="shape-rendering:geometricPrecision; text-rendering:geometricPrecision; image-rendering:optimizeQuality; fill-rule:evenodd; clip-rule:evenodd"
viewBox="0 0 100551 25008"
 xmlns:xlink="http://www.w3.org/1999/xlink">
 <defs>
  <style type="text/css">
   <![CDATA[
    .fil1 {fill:#006CA9}
    .fil0 {fill:#006CA9;fill-rule:nonzero}
    .fil2 {fill:#FEFEFE;fill-rule:nonzero}
   ]]>
  </style>
 </defs>
 <g id="Слой_x0020_1">
  <metadata id="CorelCorpID_0Corel-Layer"/>
  <g id="_847533776">
   <path class="fil0" d="M53968 10658c0,518 -195,842 -453,972 -389,195 -713,259 -1102,259l-1167 0 0 -2332 1167 0c1360,0 1555,648 1555,1102l0 0 0 -1zm259 2397c454,-195 777,-518 1037,-907 259,-389 389,-907 389,-1490 0,-453 -130,-907 -389,-1295 -195,-389 -518,-713 -972,-972 -453,-195 -972,-323 -1555,-323l-3110 0 0 8875 1620 0 0 -3563 259 0 3045 3563 2008 0 -3110 -3628c259,-65 518,-130 777,-259l0 0 0 0z"/>
   <path class="fil0" d="M34726 13508l3110 0c-65,389 -195,713 -389,1037 -259,323 -583,583 -1037,777 -389,195 -842,324 -1295,324 -453,0 -907,-130 -1295,-259 -324,-195 -648,-454 -907,-713 -259,-323 -518,-648 -648,-1037 -130,-389 -195,-713 -195,-1102 0,-518 130,-1037 388,-1555 195,-454 583,-842 1037,-1167 454,-259 972,-453 1620,-453 907,0 1620,323 2203,972l130 130 1231 -972 -130 -195c-972,-907 -2138,-1360 -3369,-1360 -777,0 -1425,130 -2008,389 -583,259 -1102,648 -1555,1102 -388,453 -713,907 -907,1490 -195,518 -323,1037 -323,1555 0,777 195,1490 518,2203 389,713 907,1295 1620,1749 713,453 1620,648 2657,648 842,0 1555,-130 2138,-453 583,-324 1037,-777 1360,-1295 324,-453 583,-1037 713,-1555 130,-518 195,-1037 195,-1490l0 -195 -4276 0 -583 1425 0 0 0 -1z"/>
   <path class="fil0" d="M43537 13184l1037 -1943 972 1943 -2008 0 -1 0zm-3433 3758l1749 0 1102 -2267 3239 0 1102 2267 1749 0 -4470 -9265 -4470 9265 -2 0z"/>
   <path class="fil0" d="M89989 14545c-324,389 -648,648 -1037,842 -389,130 -842,259 -1360,259 -518,0 -972,-195 -1360,-453 -453,-259 -777,-648 -972,-1167 -259,-518 -389,-1037 -389,-1685 0,-583 195,-1166 453,-1620 324,-453 713,-777 1167,-972 453,-259 972,-389 1490,-389 713,0 1295,259 1749,842l130 130 1102 -1102 -130 -130c-453,-389 -907,-713 -1295,-907 -972,-389 -2203,-323 -3239,0 -583,195 -1102,518 -1555,842 -454,389 -842,842 -1102,1425 -259,583 -389,1167 -389,1879 0,583 65,1231 259,1749 195,583 518,1102 907,1555 389,453 907,777 1425,1037 583,259 1231,389 1943,389 1360,0 2462,-518 3304,-1555l130 -195 -1102 -907 -130 130 0 0 1 0z"/>
   <path class="fil0" d="M97116 13184l-2008 0 972 -1943 1037 1943 -1 0zm-1037 -5507l-4405 9265 1749 0 1037 -2267 3239 0 1102 2267 1749 0 -4470 -9265 0 0 -2 0z"/>
   <polygon class="fil0" points="80854,16941 82409,16941 82409,8066 80854,8066 "/>
   <path class="fil0" d="M60252 13184l972 -1943 1037 1943 -2008 0 -1 0zm-3433 3758l1749 0 1037 -2267 3239 0 1102 2267 1749 0 -4470 -9265 -4405 9265 0 0 -2 0z"/>
   <polygon class="fil0" points="74246,9556 76384,9556 76384,16941 78003,16941 78003,9556 80142,9556 80142,8066 74246,8066 "/>
   <polygon class="fil0" points="72108,13638 66342,7613 66342,16941 67832,16941 67832,11305 73533,17395 73533,8066 72108,8066 "/>
  </g>
  <polygon class="fil1" points="0,0 25008,0 25008,25008 0,25008 "/>
  <path class="fil2" d="M13152 11856l0 -1555 -2332 0 0 5377 2332 0 0 -1490 4665 0c-130,777 -453,1490 -842,2073 -518,648 -1102,1102 -1814,1490 -777,324 -1555,518 -2397,518 -907,0 -1685,-195 -2397,-518 -713,-323 -1295,-713 -1749,-1295 -518,-518 -842,-1166 -1102,-1814 -259,-713 -389,-1425 -389,-2138 0,-907 259,-1879 648,-2721 453,-907 1102,-1620 1943,-2203 842,-518 1879,-777 3045,-777 1555,0 2915,518 4017,1685l130 130 1943 -1555 -130 -130c-1749,-1620 -3693,-2462 -5960,-2462 -1295,0 -2462,259 -3498,713 -1037,453 -1943,1102 -2657,1879 -713,842 -1231,1685 -1620,2657 -324,907 -518,1879 -518,2786 0,1295 324,2527 907,3758 648,1231 1555,2267 2850,3110 1231,777 2786,1167 4535,1167 1490,0 2786,-259 3758,-842 1037,-583 1879,-1295 2462,-2203 518,-842 972,-1814 1167,-2721 259,-907 389,-1814 453,-2657l0 -259 -7450 0 0 0 2 -1z"/>
 </g>
</svg>
